<svg xmlns="http://www.w3.org/2000/svg" version="1.1" xmlns:xlink="http://www.w3.org/1999/xlink" xmlns:svgjs="http://svgjs.dev/svgjs" width="1500" height="367" viewBox="0 0 1500 367"><g transform="matrix(1,0,0,1,-0.7322126203196149,-1.551751282051299)"><svg viewBox="0 0 318 78" data-background-color="#c4ed95" preserveAspectRatio="xMidYMid meet" height="367" width="1500" xmlns="http://www.w3.org/2000/svg" xmlns:xlink="http://www.w3.org/1999/xlink"><g id="tight-bounds" transform="matrix(1,0,0,1,0.1552290755077479,0.32980000000000587)"><svg viewBox="0 0 317.6895418489845 77.34039999999999" height="77.34039999999999" width="317.6895418489845"><g><svg viewBox="0 0 317.6895418489845 77.34039999999999" height="77.34039999999999" width="317.6895418489845"><g><svg viewBox="0 0 317.6895418489845 77.34039999999999" height="77.34039999999999" width="317.6895418489845"><g id="textblocktransform"><svg viewBox="0 0 317.6895418489845 77.34039999999999" height="77.34039999999999" width="317.6895418489845" id="textblock"><g><svg viewBox="0 0 317.6895418489845 77.34039999999999" height="77.34039999999999" width="317.6895418489845"><g><svg><g></g><g></g></svg></g><g><svg><g><svg></svg></g><g></g></svg></g><g id="text-0"><svg viewBox="0 0 317.6895418489845 77.34039999999999" height="77.34039999999999" width="317.6895418489845"><g transform="matrix(1,0,0,1,0,0)"><svg width="231.9403" viewBox="1.7 -34 143.33 47.800000000000004" height="77.34039999999999" data-palette-color="#3d9970"><path d="M9.8 0.65L9.8 0.65Q6.35 0.65 4.28-1.23 2.2-3.1 2.2-6.75L2.2-6.75Q2.2-8.45 2.68-10.05 3.15-11.65 3.95-13.05L3.95-13.05Q3.15-12.55 2.75-12.55L2.75-12.55Q2.15-12.55 1.93-13.23 1.7-13.9 1.7-14.55L1.7-14.55Q1.7-15.7 2.18-16.38 2.65-17.05 3.1-17.4L3.1-17.4Q4.15-18.3 6.4-19.38 8.65-20.45 11.8-20.45L11.8-20.45Q16.1-20.45 18.48-18.05 20.85-15.65 20.85-11.35L20.85-11.35Q20.85-8 19.45-5.28 18.05-2.55 15.58-0.95 13.1 0.65 9.8 0.65ZM11.35-4.45L11.35-4.45Q13.85-4.45 15.58-6.03 17.3-7.6 17.3-10.2L17.3-10.2Q17.3-12.9 15.55-14.05 13.8-15.2 11.5-15.2L11.5-15.2Q10.45-15.2 9.6-15 8.75-14.8 8-14.5L8-14.5Q7.3-13.5 6.75-12.25 6.2-11 6.2-9.5L6.2-9.5Q6.2-7 7.7-5.73 9.2-4.45 11.35-4.45ZM27.95-24.85L27.95-24.85Q26.55-24.9 25.7-25.7 24.85-26.5 24.9-27.95L24.9-27.95Q24.95-29.5 25.95-30.48 26.95-31.45 28.5-31.4L28.5-31.4Q29.95-31.35 30.75-30.55 31.55-29.75 31.5-28.3L31.5-28.3Q31.45-26.8 30.5-25.83 29.55-24.85 27.95-24.85ZM20.5 13.8L20.5 13.8Q18.55 13.8 17.12 12.75 15.7 11.7 15.7 9.8L15.7 9.8Q15.7 8.3 16.47 7.45 17.25 6.6 18.1 6.6L18.1 6.6Q18.7 6.6 19.25 7.1L19.25 7.1Q19.7 7.55 20.27 7.8 20.85 8.05 21.7 8.05L21.7 8.05Q23.55 8.05 24.42 6.83 25.3 5.6 25.65 3.7L25.65 3.7Q26.3 0.5 26.45-2.3 26.6-5.1 26.6-8.25L26.6-8.25Q26.6-11.4 26.37-13.08 26.15-14.75 25-15.3L25-15.3Q24.25-15.7 23.9-16 23.55-16.3 23.55-16.8L23.55-16.8Q23.55-17.55 24.22-18.35 24.9-19.15 26-19.7 27.1-20.25 28.35-20.25L28.35-20.25Q29.8-20.25 30.42-19.5 31.05-18.75 31.22-17.6 31.4-16.45 31.35-15.15L31.35-15.15Q31.3-9.8 30.82-4.98 30.35-0.15 29.05 4.1L29.05 4.1Q27.75 8.65 25.67 11.23 23.6 13.8 20.5 13.8ZM40.7-24.85L40.7-24.85Q39.3-24.9 38.45-25.7 37.59-26.5 37.59-27.95L37.59-27.95Q37.64-29.5 38.64-30.48 39.64-31.45 41.2-31.4L41.2-31.4Q42.64-31.35 43.47-30.55 44.3-29.75 44.24-28.3L44.24-28.3Q44.2-26.8 43.24-25.83 42.3-24.85 40.7-24.85ZM40.74 0.5L40.74 0.5Q39.24 0.5 38.39-0.33 37.55-1.15 37.55-3.15L37.55-3.15Q37.55-4.3 37.77-5.4 37.99-6.5 38.3-7.55L38.3-7.55Q38.64-8.65 38.87-9.8 39.09-10.95 39.09-12.25L39.09-12.25Q39.09-13.15 38.84-13.98 38.59-14.8 37.74-15.2L37.74-15.2Q37.09-15.55 36.62-15.93 36.14-16.3 36.14-16.9L36.14-16.9Q36.14-17.6 36.8-18.4 37.45-19.2 38.52-19.78 39.59-20.35 40.74-20.35L40.74-20.35Q41.99-20.35 42.57-19.7 43.14-19.05 43.34-18.05 43.55-17.05 43.55-16L43.55-16Q43.55-14.4 43.3-12.88 43.05-11.35 42.8-10.05L42.8-10.05Q42.59-9.1 42.49-8.3 42.39-7.5 42.39-6.8L42.39-6.8Q42.39-5.55 42.99-4.93 43.59-4.3 44.7-3.75L44.7-3.75Q45.14-3.5 45.14-3L45.14-3Q45.14-2.6 44.74-1.75 44.34-0.9 43.37-0.2 42.39 0.5 40.74 0.5ZM55.49 0.65L55.49 0.65Q53.64 0.65 52.04 0.1 50.44-0.45 49.44-1.45 48.44-2.45 48.44-3.85L48.44-3.85Q48.44-4.6 48.82-5.28 49.19-5.95 50.04-5.95L50.04-5.95Q50.49-5.95 50.99-5.7L50.99-5.7Q51.89-5.2 53.29-4.78 54.69-4.35 56.24-4.35L56.24-4.35Q57.99-4.35 59.34-4.85 60.69-5.35 60.69-6.25L60.69-6.25Q60.69-6.95 59.67-7.25 58.64-7.55 56.24-7.9L56.24-7.9Q54.59-8.2 53.04-8.6 51.49-9 50.49-9.98 49.49-10.95 49.49-12.85L49.49-12.85Q49.49-14.7 50.52-16.43 51.54-18.15 53.59-19.3 55.64-20.45 58.59-20.45L58.59-20.45Q60.14-20.45 61.59-20.1 63.04-19.75 63.99-19.05 64.94-18.35 64.94-17.3L64.94-17.3Q64.94-16.4 64.32-15.65 63.69-14.9 62.87-14.43 62.04-13.95 61.49-13.95L61.49-13.95Q61.09-13.95 60.54-14.5L60.54-14.5Q59.69-15.2 58.67-15.48 57.64-15.75 56.64-15.75L56.64-15.75Q55.14-15.75 54.22-15.3 53.29-14.85 53.29-14.15L53.29-14.15Q53.29-13.5 54.07-13.1 54.84-12.7 55.99-12.53 57.14-12.35 58.19-12.2L58.19-12.2Q61.09-11.8 62.79-10.83 64.49-9.85 64.49-7.4L64.49-7.4Q64.49-5.5 63.42-3.63 62.34-1.75 60.32-0.55 58.29 0.65 55.49 0.65ZM70.69 0.55L70.69 0.55Q70.14 0.55 69.64 0.23 69.14-0.1 69.24-0.65L69.24-0.65Q69.99-4.65 70.52-8.78 71.04-12.9 71.04-17.1L71.04-17.1Q71.04-20.8 70.79-23.8 70.54-26.8 69.19-29.55L69.19-29.55Q68.94-30.1 68.79-30.5 68.64-30.9 68.64-31.25L68.64-31.25Q68.64-32.2 69.74-33.1 70.84-34 72.09-34L72.09-34Q73.89-34 74.54-31.8 75.19-29.6 75.19-25.3L75.19-25.3Q75.19-20.15 74.59-16.32 73.99-12.5 73.54-10.5L73.54-10.5 73.74-10.4Q74.74-12.85 76.29-15.13 77.84-17.4 79.87-18.9 81.89-20.4 84.29-20.4L84.29-20.4Q86.64-20.4 87.92-19 89.19-17.6 89.19-15.65L89.19-15.65Q89.19-13.35 87.54-11.55 85.89-9.75 83.24-8.55L83.24-8.55Q83.89-6.85 85.09-5.88 86.29-4.9 88.14-4.9L88.14-4.9Q88.74-4.9 89.14-5L89.14-5Q89.79-5.15 89.79-3.75L89.79-3.75Q89.79-2.95 89.49-1.95 89.19-0.95 88.31-0.23 87.44 0.5 85.69 0.5L85.69 0.5Q83.34 0.5 81.87-0.88 80.39-2.25 79.56-4.28 78.74-6.3 78.29-8.3L78.29-8.3Q77.89-10.15 79.54-10.25L79.54-10.25Q81.29-10.45 82.49-11.3 83.69-12.15 83.69-13.55L83.69-13.55Q83.69-15.15 82.14-15.15L82.14-15.15Q81.14-15.15 80.12-14.43 79.09-13.7 78.22-12.7 77.34-11.7 76.79-10.75L76.79-10.75Q76.04-9.45 75.49-8.2 74.94-6.95 74.59-5.7L74.59-5.7 74.59-3.7Q74.59-1.85 73.52-0.65 72.44 0.55 70.69 0.55ZM97.99-24.85L97.99-24.85Q96.59-24.9 95.74-25.7 94.89-26.5 94.89-27.95L94.89-27.95Q94.94-29.5 95.94-30.48 96.94-31.45 98.49-31.4L98.49-31.4Q99.94-31.35 100.76-30.55 101.59-29.75 101.54-28.3L101.54-28.3Q101.49-26.8 100.54-25.83 99.59-24.85 97.99-24.85ZM98.04 0.5L98.04 0.5Q96.54 0.5 95.69-0.33 94.84-1.15 94.84-3.15L94.84-3.15Q94.84-4.3 95.06-5.4 95.29-6.5 95.59-7.55L95.59-7.55Q95.94-8.65 96.16-9.8 96.39-10.95 96.39-12.25L96.39-12.25Q96.39-13.15 96.14-13.98 95.89-14.8 95.04-15.2L95.04-15.2Q94.39-15.55 93.91-15.93 93.44-16.3 93.44-16.9L93.44-16.9Q93.44-17.6 94.09-18.4 94.74-19.2 95.81-19.78 96.89-20.35 98.04-20.35L98.04-20.35Q99.29-20.35 99.86-19.7 100.44-19.05 100.64-18.05 100.84-17.05 100.84-16L100.84-16Q100.84-14.4 100.59-12.88 100.34-11.35 100.09-10.05L100.09-10.05Q99.89-9.1 99.79-8.3 99.69-7.5 99.69-6.8L99.69-6.8Q99.69-5.55 100.29-4.93 100.89-4.3 101.99-3.75L101.99-3.75Q102.44-3.5 102.44-3L102.44-3Q102.44-2.6 102.04-1.75 101.64-0.9 100.66-0.2 99.69 0.5 98.04 0.5ZM109.89 0.5L109.89 0.5Q108.44 0.5 107.74-0.3 107.04-1.1 107.04-3.1L107.04-3.1Q107.04-4.05 107.19-5.55 107.34-7.05 107.54-8.8L107.54-8.8Q107.84-10.95 108.06-13.3 108.29-15.65 108.29-17.8L108.29-17.8Q108.29-20.85 108.01-24.13 107.74-27.4 106.49-29.85L106.49-29.85Q106.04-30.85 106.04-31.3L106.04-31.3Q106.04-31.95 106.61-32.55 107.19-33.15 108.04-33.58 108.89-34 109.69-34L109.69-34Q110.99-34 111.64-32.83 112.29-31.65 112.49-29.63 112.69-27.6 112.69-25L112.69-25Q112.69-21.05 112.36-18.15 112.04-15.25 111.74-13.05L111.74-13.05Q111.54-11.6 111.36-10.3 111.19-9 111.19-7.95L111.19-7.95Q111.19-6.2 111.76-5.43 112.34-4.65 113.64-3.9L113.64-3.9Q113.99-3.7 114.16-3.53 114.34-3.35 114.34-3L114.34-3Q114.34-2.6 113.94-1.75 113.54-0.9 112.56-0.2 111.59 0.5 109.89 0.5ZM121.28 0.5L121.28 0.5Q119.83 0.5 119.13-0.3 118.43-1.1 118.43-3.1L118.43-3.1Q118.43-4.05 118.58-5.55 118.73-7.05 118.93-8.8L118.93-8.8Q119.23-10.95 119.46-13.3 119.68-15.65 119.68-17.8L119.68-17.8Q119.68-20.85 119.41-24.13 119.13-27.4 117.88-29.85L117.88-29.85Q117.43-30.85 117.43-31.3L117.43-31.3Q117.43-31.95 118.01-32.55 118.58-33.15 119.43-33.58 120.28-34 121.08-34L121.08-34Q122.38-34 123.03-32.83 123.68-31.65 123.88-29.63 124.08-27.6 124.08-25L124.08-25Q124.08-21.05 123.76-18.15 123.43-15.25 123.13-13.05L123.13-13.05Q122.93-11.6 122.76-10.3 122.58-9 122.58-7.95L122.58-7.95Q122.58-6.2 123.16-5.43 123.73-4.65 125.03-3.9L125.03-3.9Q125.38-3.7 125.56-3.53 125.73-3.35 125.73-3L125.73-3Q125.73-2.6 125.33-1.75 124.93-0.9 123.96-0.2 122.98 0.5 121.28 0.5ZM135.58 0.65L135.58 0.65Q133.73 0.65 132.13 0.1 130.53-0.45 129.53-1.45 128.53-2.45 128.53-3.85L128.53-3.85Q128.53-4.6 128.91-5.28 129.28-5.95 130.13-5.95L130.13-5.95Q130.58-5.95 131.08-5.7L131.08-5.7Q131.98-5.2 133.38-4.78 134.78-4.35 136.33-4.35L136.33-4.35Q138.08-4.35 139.43-4.85 140.78-5.35 140.78-6.25L140.78-6.25Q140.78-6.95 139.76-7.25 138.73-7.55 136.33-7.9L136.33-7.9Q134.68-8.2 133.13-8.6 131.58-9 130.58-9.98 129.58-10.95 129.58-12.85L129.58-12.85Q129.58-14.7 130.61-16.43 131.63-18.15 133.68-19.3 135.73-20.45 138.68-20.45L138.68-20.45Q140.23-20.45 141.68-20.1 143.13-19.75 144.08-19.05 145.03-18.35 145.03-17.3L145.03-17.3Q145.03-16.4 144.41-15.65 143.78-14.9 142.96-14.43 142.13-13.95 141.58-13.95L141.58-13.95Q141.18-13.95 140.63-14.5L140.63-14.5Q139.78-15.2 138.76-15.48 137.73-15.75 136.73-15.75L136.73-15.75Q135.23-15.75 134.31-15.3 133.38-14.85 133.38-14.15L133.38-14.15Q133.38-13.5 134.16-13.1 134.93-12.7 136.08-12.53 137.23-12.35 138.28-12.2L138.28-12.2Q141.18-11.8 142.88-10.83 144.58-9.85 144.58-7.4L144.58-7.4Q144.58-5.5 143.51-3.63 142.43-1.75 140.41-0.55 138.38 0.65 135.58 0.65Z" opacity="1" transform="matrix(1,0,0,1,0,0)" fill="#3d9970" class="wordmark-text-0" data-fill-palette-color="primary"></path></svg></g><g><svg xmlns="http://www.w3.org/2000/svg" xmlns:xlink="http://www.w3.org/1999/xlink" version="1.1" x="250.1999" y="0" viewBox="10.636850498825211 5 78.36314950117479 89.801" enable-background="new 0 0 100 100" xml:space="preserve" height="77.34039999999999" width="67.4896418489845" class="icon-dxe-0" data-fill-palette-color="accent" id="dxe-0"><circle cx="34.131" cy="14.3" r="8.7" fill="#85144b" data-fill-palette-color="accent"></circle><polygon points="52,5 52,28.47 54.331,31.346 56,29.29 56,10 85,10 85,48 52,48 52,52 89,52 89,5 " fill="#85144b" data-fill-palette-color="accent"></polygon><path d="M67.926 27.687A3.055 3.055 0 0 0 63.606 27.687L54.528 36.832S44.828 26.001 42.341 26.001H25.383S22.009 25.874 20.96 27.268L11.277 40.096A3.156 3.156 0 0 0 11.265 43.891L20.113 56.277C20.672 57.027 21 57.451 22 57.535V90.819C22 93.018 23.801 94.801 26 94.801S30 93.018 30 90.819V62H37V90.819C37 93.018 38.801 94.801 41 94.801S45 93.018 45 90.819V36.294L52.159 43.244C52.756 43.841 53.642 44.139 54.424 44.139S56.04 43.841 56.636 43.244L67.9 32.006C69.093 30.814 69.119 28.879 67.926 27.687M17.074 41.981L22 35.435V48.611z" fill="#85144b" data-fill-palette-color="accent"></path></svg></g></svg></g></svg></g></svg></g></svg></g><g></g></svg></g><defs></defs></svg><rect width="317.6895418489845" height="77.34039999999999" fill="none" stroke="none" visibility="hidden"></rect></g></svg></g></svg>